# Blender 4.5.3 LTS
# www.blender.org
mtllib 2x star.mtl
o powerups_2xMultiplier
v -1.332492 4.128398 0.779123
v -2.754843 4.202790 0.708429
v -0.999642 4.391230 0.708429
v -1.062628 4.269668 0.779123
v -0.814804 4.323801 0.779123
v -0.129653 6.364411 0.708436
v -0.369121 4.325422 0.779123
v -0.011824 4.155040 0.779123
v 0.129653 6.364411 0.708436
v 0.999642 4.391230 0.708429
v 0.146531 3.841773 0.779123
v 0.448198 3.580604 0.779123
v 0.099643 3.437540 0.779116
v 0.341692 3.492501 0.779123
v 0.772836 3.586711 0.779123
v 1.112641 3.588574 0.779123
v 2.754842 4.202790 0.708429
v 0.978734 3.489969 0.779123
v 0.858041 3.502148 0.779123
v 0.943253 3.160438 0.779116
v 1.441413 3.576485 0.779123
v 1.496194 3.506053 0.779123
v 2.850487 4.002233 0.708429
v 1.468248 2.912725 0.708429
v 1.240552 2.840251 0.779116
v 2.060210 0.838137 0.708430
v 1.526824 2.286509 0.779116
v 1.414219 2.184336 0.779116
v 1.906996 0.713642 0.708430
v 1.123143 2.187235 0.779116
v 0.738314 2.190043 0.779116
v 0.000003 1.743635 0.708436
v 0.847863 2.253457 0.779116
v 1.007494 2.247143 0.779116
v 0.902651 2.556407 0.779116
v 0.353850 2.217292 0.779116
v 0.051010 2.079935 0.779116
v 0.143557 2.280892 0.779116
v 0.302112 2.298322 0.779116
v 0.152845 2.659767 0.779116
v 0.591227 2.907756 0.779116
v 0.088210 2.832012 0.779116
v -0.071429 3.110149 0.779116
v -0.417458 2.832012 0.779116
v 0.099643 3.437540 0.779116
v 0.051010 2.079935 0.779116
v -1.906997 0.713642 0.708430
v -1.213110 2.079935 0.779116
v -1.325681 2.284342 0.779116
v -2.060211 0.838137 0.708430
v -1.468248 2.912725 0.708429
v -1.366800 2.519967 0.779116
v -1.335804 2.755598 0.779116
v -1.290000 3.656259 0.779123
v -2.850494 4.002233 0.708429
v -2.754843 4.202790 0.708429
v -1.142596 3.534193 0.779123
v -0.856365 3.650615 0.779123
v -0.665978 3.424996 0.779116
v -0.702591 3.637918 0.779123
v -0.631367 3.559089 0.779123
v -1.062628 4.269668 0.779123
v -1.290000 3.656259 0.779123
v -1.332492 4.128398 0.779123
v -0.856365 3.650615 0.779123
v -1.142596 3.534193 0.779123
v -0.814804 4.323801 0.779123
v -0.702591 3.637918 0.779123
v -0.369121 4.325422 0.779123
v -0.011824 4.155040 0.779123
v 0.146531 3.841773 0.779123
v -0.631367 3.559089 0.779123
v 0.099643 3.437540 0.779116
v -0.665978 3.424996 0.779116
v -0.071429 3.110149 0.779116
v -1.335804 2.755598 0.779116
v -0.417458 2.832012 0.779116
v -1.366800 2.519967 0.779116
v -1.325681 2.284342 0.779116
v 0.152845 2.659767 0.779116
v 0.088210 2.832012 0.779116
v 0.143557 2.280892 0.779116
v -1.213110 2.079935 0.779116
v 0.051010 2.079935 0.779116
v 0.847863 2.253457 0.779116
v 0.738314 2.190043 0.779116
v 0.353850 2.217292 0.779116
v 0.302112 2.298322 0.779116
v 0.902651 2.556407 0.779116
v 0.591227 2.907756 0.779116
v 0.943253 3.160438 0.779116
v 0.858041 3.502148 0.779123
v 0.341692 3.492501 0.779123
v 0.772836 3.586711 0.779123
v 0.448198 3.580604 0.779123
v 1.240552 2.840251 0.779116
v 1.496194 3.506053 0.779123
v 0.978734 3.489969 0.779123
v 1.441413 3.576485 0.779123
v 1.112641 3.588574 0.779123
v 1.526824 2.286509 0.779116
v 1.007494 2.247143 0.779116
v 1.123143 2.187235 0.779116
v 1.414219 2.184336 0.779116
v -0.421294 6.985671 -0.708602
v -1.420968 4.946787 0.708436
v -1.420968 4.946787 -0.708429
v -0.421294 6.985671 0.708602
v 0.000003 7.232067 0.707987
v 0.000003 7.232067 -0.707988
v 0.421294 6.985671 -0.708602
v 0.421294 6.985671 0.708602
v 1.420967 4.946787 0.708436
v 1.420967 4.946787 -0.708436
v -2.708755 0.512830 0.708430
v -2.126398 2.700327 -0.708429
v -2.126398 2.700327 0.708429
v -2.708755 0.512830 -0.708429
v -2.518404 0.104746 0.708430
v -2.561200 0.139965 -0.716605
v -2.081098 -0.003409 0.708430
v -2.081098 -0.003409 -0.708429
v 0.000003 0.997507 0.708436
v 0.000003 0.997507 -0.708436
v 2.081098 -0.003409 -0.708435
v 2.081098 -0.003409 0.708430
v 2.561199 0.139965 -0.716605
v 2.518404 0.104746 0.708430
v 2.708755 0.512830 -0.708429
v 2.708755 0.512830 0.708430
v 2.126398 2.700327 -0.708429
v 2.126398 2.700327 0.708429
v -3.525495 3.918222 -0.708429
v -2.126398 2.700327 0.708429
v -2.126398 2.700327 -0.708429
v -3.525495 3.918222 0.708429
v -3.583713 4.406990 -0.708429
v -3.583713 4.406991 0.708429
v -3.244225 4.713025 -0.708429
v -3.244225 4.713025 0.708429
v -1.420968 4.946787 -0.708429
v -1.420968 4.946787 0.708436
v 3.525495 3.918222 -0.708436
v 2.126398 2.700327 -0.708429
v 2.126398 2.700327 0.708429
v 3.525495 3.918222 0.708429
v 3.583712 4.406990 -0.708436
v 3.583712 4.406991 0.708429
v 3.244225 4.713025 -0.708436
v 3.244225 4.713025 0.708429
v 1.420967 4.946787 -0.708436
v 1.420967 4.946787 0.708436
v 1.332491 4.128397 -0.779122
v 2.754842 4.202790 -0.708436
v 0.999642 4.391230 -0.708429
v 1.062628 4.269667 -0.779122
v 0.814804 4.323800 -0.779122
v 0.129653 6.364411 -0.708436
v 0.369121 4.325422 -0.779122
v 0.011823 4.155039 -0.779122
v -0.129653 6.364411 -0.708436
v -0.999642 4.391230 -0.708429
v -0.146531 3.841773 -0.779122
v -0.448198 3.580604 -0.779122
v -0.099644 3.437540 -0.779122
v -0.341692 3.492501 -0.779122
v -0.772837 3.586711 -0.779122
v -1.112641 3.588574 -0.779122
v -2.754843 4.202790 -0.708429
v -0.978734 3.489969 -0.779122
v -0.858041 3.502148 -0.779122
v -0.943253 3.160438 -0.779122
v -1.441413 3.576485 -0.779122
v -1.496194 3.506053 -0.779122
v -2.850494 4.002233 -0.708429
v -1.468248 2.912724 -0.708429
v -1.240552 2.840250 -0.779122
v -2.060211 0.838137 -0.708429
v -1.526825 2.286509 -0.779115
v -1.414219 2.184336 -0.779115
v -1.906997 0.713642 -0.708429
v -1.123144 2.187235 -0.779115
v -0.738314 2.190043 -0.779122
v 0.000003 1.743635 -0.708436
v -0.847864 2.253457 -0.779115
v -1.007495 2.247143 -0.779115
v -0.902652 2.556407 -0.779122
v -0.353851 2.217292 -0.779122
v -0.051011 2.079935 -0.779122
v -0.143557 2.280892 -0.779122
v -0.302112 2.298322 -0.779122
v -0.152845 2.659767 -0.779122
v -0.591227 2.907756 -0.779122
v -0.088210 2.832012 -0.779122
v 0.071428 3.110149 -0.779122
v 0.417457 2.832012 -0.779122
v -0.099644 3.437540 -0.779122
v -0.051011 2.079935 -0.779122
v 1.906996 0.713642 -0.708429
v 1.213109 2.079935 -0.779122
v 1.325681 2.284342 -0.779122
v 2.060210 0.838137 -0.708429
v 1.468248 2.912724 -0.708429
v 1.366800 2.519967 -0.779122
v 1.335804 2.755598 -0.779122
v 1.289999 3.656259 -0.779122
v 2.850487 4.002233 -0.708436
v 2.754842 4.202790 -0.708436
v 1.142595 3.534193 -0.779122
v 0.856364 3.650615 -0.779122
v 0.665978 3.424996 -0.779122
v 0.702584 3.637918 -0.779122
v 0.631366 3.559089 -0.779122
v 1.062628 4.269667 -0.779122
v 1.289999 3.656259 -0.779122
v 1.332491 4.128397 -0.779122
v 0.856364 3.650615 -0.779122
v 1.142595 3.534193 -0.779122
v 0.814804 4.323800 -0.779122
v 0.702584 3.637918 -0.779122
v 0.369121 4.325422 -0.779122
v 0.011823 4.155039 -0.779122
v -0.146531 3.841773 -0.779122
v 0.631366 3.559089 -0.779122
v -0.099644 3.437540 -0.779122
v 0.665978 3.424996 -0.779122
v 0.071428 3.110149 -0.779122
v 1.335804 2.755598 -0.779122
v 0.417457 2.832012 -0.779122
v 1.366800 2.519967 -0.779122
v 1.325681 2.284342 -0.779122
v -0.152845 2.659767 -0.779122
v -0.088210 2.832012 -0.779122
v -0.143557 2.280892 -0.779122
v 1.213109 2.079935 -0.779122
v -0.051011 2.079935 -0.779122
v -0.847864 2.253457 -0.779115
v -0.738314 2.190043 -0.779122
v -0.353851 2.217292 -0.779122
v -0.302112 2.298322 -0.779122
v -0.902652 2.556407 -0.779122
v -0.591227 2.907756 -0.779122
v -0.943253 3.160438 -0.779122
v -0.858041 3.502148 -0.779122
v -0.341692 3.492501 -0.779122
v -0.772837 3.586711 -0.779122
v -0.448198 3.580604 -0.779122
v -1.240552 2.840250 -0.779122
v -1.496194 3.506053 -0.779122
v -0.978734 3.489969 -0.779122
v -1.441413 3.576485 -0.779122
v -1.112641 3.588574 -0.779122
v -1.526825 2.286509 -0.779115
v -1.007495 2.247143 -0.779115
v -1.123144 2.187235 -0.779115
v -1.414219 2.184336 -0.779115
v -2.060211 0.838137 0.708430
v -2.708755 0.512830 0.708430
v -2.126398 2.700327 0.708429
v -2.518404 0.104746 0.708430
v -1.468248 2.912725 0.708429
v -1.906997 0.713642 0.708430
v -3.525495 3.918222 0.708429
v -2.081098 -0.003409 0.708430
v -2.850494 4.002233 0.708429
v -3.583713 4.406991 0.708429
v 0.000003 1.743635 0.708436
v 0.000003 0.997507 0.708436
v 2.081098 -0.003409 0.708430
v 1.906996 0.713642 0.708430
v 2.518404 0.104746 0.708430
v -2.754843 4.202790 0.708429
v -3.244225 4.713025 0.708429
v -1.420968 4.946787 0.708436
v -0.999642 4.391230 0.708429
v -0.421294 6.985671 0.708602
v -0.129653 6.364411 0.708436
v 0.000003 7.232067 0.707987
v 0.129653 6.364411 0.708436
v 0.421294 6.985671 0.708602
v 0.999642 4.391230 0.708429
v 1.420967 4.946787 0.708436
v 2.060210 0.838137 0.708430
v 2.708755 0.512830 0.708430
v 2.126398 2.700327 0.708429
v 1.468248 2.912725 0.708429
v 3.525495 3.918222 0.708429
v 2.850487 4.002233 0.708429
v 3.583712 4.406991 0.708429
v 2.754842 4.202790 0.708429
v 3.244225 4.713025 0.708429
v 2.060210 0.838137 -0.708429
v 2.708755 0.512830 -0.708429
v 2.126398 2.700327 -0.708429
v 2.518404 0.104746 -0.708429
v 1.468248 2.912724 -0.708429
v 1.906996 0.713642 -0.708429
v 3.525495 3.918222 -0.708436
v 2.081098 -0.003409 -0.708435
v 2.850487 4.002233 -0.708436
v 3.583712 4.406990 -0.708436
v 0.000003 1.743635 -0.708436
v 0.000003 0.997507 -0.708436
v -2.081098 -0.003409 -0.708429
v -1.906997 0.713642 -0.708429
v -2.518404 0.104746 -0.708429
v 2.754842 4.202790 -0.708436
v 3.244225 4.713025 -0.708436
v 1.420967 4.946787 -0.708436
v 0.999642 4.391230 -0.708429
v 0.421294 6.985671 -0.708602
v 0.129653 6.364411 -0.708436
v 0.000003 7.232067 -0.707988
v -0.129653 6.364411 -0.708436
v -0.421294 6.985671 -0.708602
v -0.999642 4.391230 -0.708429
v -1.420968 4.946787 -0.708429
v -2.060211 0.838137 -0.708429
v -2.708755 0.512830 -0.708429
v -2.126398 2.700327 -0.708429
v -1.468248 2.912724 -0.708429
v -3.525495 3.918222 -0.708429
v -2.850494 4.002233 -0.708429
v -3.583713 4.406990 -0.708429
v -2.754843 4.202790 -0.708429
v -3.244225 4.713025 -0.708429
vn -0.0319 0.2971 0.9543
vn -0.3104 0.5929 0.7430
vn -0.1189 0.5445 0.8303
vn -0.3100 0.1367 0.9409
vn -0.0001 0.0347 0.9994
vn 0.0156 0.0328 0.9993
vn -0.0000 0.0320 0.9995
vn 0.0632 0.0279 0.9976
vn 0.0624 0.0315 0.9976
vn 0.0474 0.0547 0.9974
vn -0.0000 -0.0000 1.0000
vn -0.0017 0.0880 0.9961
vn -0.0005 0.0877 0.9961
vn 0.0096 0.0891 0.9960
vn 0.0038 0.1042 0.9945
vn 0.0392 0.0305 0.9988
vn 0.0444 0.0212 0.9988
vn 0.0963 -0.1222 0.9878
vn 0.3307 -0.1270 0.9351
vn 0.2729 0.0779 0.9589
vn 0.3078 0.1591 -0.9380
vn 0.0332 -0.0365 0.9988
vn 0.0307 -0.0377 0.9988
vn -0.0005 -0.0482 0.9988
vn -0.0004 -0.0481 0.9988
vn -0.0450 -0.0833 0.9955
vn -0.0099 -0.1403 0.9901
vn 0.0994 -0.2191 0.9706
vn 0.1197 -0.2215 0.9678
vn -0.0000 -0.0517 0.9987
vn -0.0488 -0.0269 0.9984
vn -0.0281 -0.0346 0.9990
vn -0.2141 0.0611 0.9749
vn -0.8954 -0.1563 0.4169
vn -0.4185 0.0551 0.9065
vn -0.4495 0.0229 0.8930
vn -0.0627 -0.0796 0.9949
vn -0.0462 -0.0042 0.9989
vn -0.0484 0.0231 0.9986
vn -0.0000 -0.0001 1.0000
vn -0.8979 0.4402 -0.0000
vn -0.5049 0.8632 -0.0000
vn -0.5048 0.8632 -0.0000
vn 0.5049 0.8632 -0.0000
vn 0.8979 0.4402 -0.0000
vn -0.9663 0.2573 -0.0000
vn -0.9063 -0.4227 -0.0000
vn -0.9295 -0.3683 0.0188
vn -0.2401 -0.9706 -0.0168
vn -0.2861 -0.9582 -0.0000
vn 0.4334 -0.9012 -0.0000
vn -0.4334 -0.9012 -0.0000
vn 0.2861 -0.9582 -0.0000
vn 0.2401 -0.9706 -0.0168
vn 0.9295 -0.3683 0.0188
vn 0.9063 -0.4227 -0.0000
vn 0.9663 0.2573 -0.0000
vn -0.6566 -0.7543 -0.0000
vn -0.9930 -0.1183 -0.0000
vn -0.6696 0.7428 -0.0000
vn -0.1272 0.9919 -0.0000
vn 0.6566 -0.7543 -0.0000
vn 0.9930 -0.1183 -0.0000
vn 0.6696 0.7428 -0.0000
vn 0.1272 0.9919 -0.0000
vn 0.0319 0.2971 -0.9543
vn 0.3104 0.5929 -0.7430
vn 0.1189 0.5445 -0.8303
vn 0.3100 0.1367 -0.9409
vn 0.0001 0.0347 -0.9994
vn -0.0156 0.0328 -0.9993
vn -0.0000 0.0320 -0.9995
vn -0.0632 0.0279 -0.9976
vn -0.0624 0.0315 -0.9976
vn -0.0474 0.0547 -0.9974
vn -0.0000 -0.0000 -1.0000
vn 0.0017 0.0880 -0.9961
vn 0.0005 0.0877 -0.9961
vn -0.0096 0.0891 -0.9960
vn -0.0038 0.1042 -0.9945
vn -0.0392 0.0305 -0.9988
vn -0.0444 0.0212 -0.9988
vn -0.0963 -0.1222 -0.9878
vn -0.3308 -0.1270 -0.9351
vn -0.2729 0.0779 -0.9589
vn -0.3078 0.1591 0.9381
vn -0.0332 -0.0365 -0.9988
vn -0.0307 -0.0377 -0.9988
vn 0.0005 -0.0482 -0.9988
vn 0.0003 -0.0481 -0.9988
vn 0.0450 -0.0833 -0.9955
vn -0.0000 0.0001 -1.0000
vn 0.0099 -0.1403 -0.9901
vn -0.0994 -0.2191 -0.9706
vn -0.1197 -0.2216 -0.9678
vn -0.0000 -0.0517 -0.9987
vn 0.0488 -0.0269 -0.9984
vn 0.0281 -0.0346 -0.9990
vn 0.2141 0.0611 -0.9749
vn 0.8954 -0.1563 -0.4168
vn 0.4185 0.0551 -0.9065
vn 0.4495 0.0229 -0.8930
vn 0.0627 -0.0796 -0.9949
vn 0.0462 -0.0042 -0.9989
vn 0.0484 0.0231 -0.9986
vn -0.0001 -0.0001 1.0000
vn 0.0003 -0.0001 1.0000
vn 0.0013 0.0003 1.0000
vn -0.0000 0.0005 1.0000
vn -0.0013 0.0003 1.0000
vn -0.0003 -0.0001 1.0000
vn 0.0001 -0.0001 1.0000
vn 0.0001 -0.0001 -1.0000
vn -0.0003 -0.0001 -1.0000
vn -0.0013 0.0003 -1.0000
vn -0.0000 0.0005 -1.0000
vn 0.0013 0.0003 -1.0000
vn 0.0003 -0.0001 -1.0000
vn -0.0001 -0.0001 -1.0000
vt 0.697841 0.318083
vt 0.647638 0.314493
vt 0.691817 0.310344
vt 0.698093 0.313626
vt 0.703846 0.314885
vt 0.720975 0.370067
vt 0.714205 0.314922
vt 0.724192 0.311901
vt 0.721366 0.368696
vt 0.697878 0.317141
vt 0.720611 0.304833
vt 0.713804 0.298931
vt 0.721674 0.295704
vt 0.716210 0.296945
vt 0.706475 0.299071
vt 0.698801 0.299108
vt 0.647591 0.314913
vt 0.701822 0.296889
vt 0.704554 0.297159
vt 0.702624 0.289448
vt 0.691379 0.298838
vt 0.690139 0.297252
vt 0.646743 0.313141
vt 0.688330 0.282977
vt 0.695911 0.282212
vt 0.672086 0.226340
vt 0.689449 0.269717
vt 0.691994 0.267405
vt 0.673112 0.225510
vt 0.698568 0.267470
vt 0.707249 0.267535
vt 0.723408 0.260076
vt 0.704778 0.268971
vt 0.701179 0.268822
vt 0.703547 0.275806
vt 0.715930 0.268151
vt 0.723483 0.265503
vt 0.720686 0.269587
vt 0.717105 0.269978
vt 0.720471 0.278137
vt 0.710578 0.283741
vt 0.721935 0.282025
vt 0.719632 0.286688
vt 0.711585 0.280226
vt 0.723604 0.294296
vt 0.673467 0.223552
vt 0.723968 0.270314
vt 0.694596 0.262752
vt 0.691976 0.267498
vt 0.671630 0.225034
vt 0.688181 0.281746
vt 0.691024 0.272971
vt 0.691742 0.278445
vt 0.692806 0.299378
vt 0.642248 0.313887
vt 0.645437 0.315528
vt 0.696228 0.296544
vt 0.702885 0.299248
vt 0.707305 0.294007
vt 0.706456 0.298949
vt 0.708107 0.297122
vt 0.659331 0.116246
vt 0.659321 0.116246
vt 0.659312 0.116246
vt 0.659331 0.116255
vt 0.659321 0.116255
vt 0.659303 0.116255
vt 0.659312 0.116255
vt 0.659303 0.116246
vt 0.726513 0.460813
vt 0.723884 0.459890
vt 0.726905 0.544360
vt 0.726569 0.544248
vt 0.726569 0.544239
vt 0.654044 0.376305
vt 0.651312 0.376846
vt 0.611645 0.307528
vt 0.608596 0.308134
vt 0.653951 0.376557
vt 0.651498 0.377042
vt 0.653941 0.376604
vt 0.651526 0.377079
vt 0.654034 0.376249
vt 0.651302 0.376790
vt 0.727101 0.459684
vt 0.724471 0.458761
vt 0.727194 0.459414
vt 0.724565 0.458491
vt 0.726989 0.544201
vt 0.726644 0.544099
vt 0.726980 0.544220
vt 0.727325 0.543297
vt 0.726989 0.543176
vt 0.722523 0.529618
vt 0.722588 0.501449
vt 0.714177 0.510876
vt 0.722560 0.497588
vt 0.714392 0.481578
vt 0.714233 0.509458
vt 0.722672 0.593948
vt 0.722513 0.496563
vt 0.713898 0.546747
vt 0.722681 0.598563
vt 0.714914 0.521142
vt 0.722290 0.506027
vt 0.722056 0.496563
vt 0.715585 0.509458
vt 0.722010 0.497588
vt 0.714065 0.549022
vt 0.722532 0.601454
vt 0.723008 0.603664
vt 0.714420 0.551157
vt 0.722551 0.606834
vt 0.714867 0.605920
vt 0.722290 0.610470
vt 0.714961 0.605920
vt 0.722243 0.606834
vt 0.714215 0.551157
vt 0.722131 0.603664
vt 0.714858 0.510876
vt 0.721991 0.501449
vt 0.722056 0.529618
vt 0.713674 0.481578
vt 0.721898 0.593948
vt 0.714121 0.546747
vt 0.721898 0.598563
vt 0.715184 0.549022
vt 0.721935 0.601454
s 0
f 3/1/1 2/2/1 1/3/1
f 4/4/2 3/1/2 1/3/2
f 5/5/3 3/1/3 4/4/3
f 6/6/4 3/1/4 5/5/4
f 7/7/5 6/6/5 5/5/5
f 6/6/6 7/7/6 8/8/6
f 9/9/7 6/6/7 8/8/7
f 10/10/8 9/9/8 8/8/8
f 11/11/9 10/10/9 8/8/9
f 11/11/10 12/12/10 10/10/10
f 12/12/11 11/11/11 13/13/11
f 14/14/11 12/12/11 13/13/11
f 12/12/12 15/15/12 10/10/12
f 15/15/13 16/16/13 10/10/13
f 17/17/14 10/10/14 16/16/14
f 18/18/11 16/16/11 15/15/11
f 19/19/11 18/18/11 15/15/11
f 19/19/11 20/20/11 18/18/11
f 21/21/15 17/17/15 16/16/15
f 21/21/16 22/22/16 17/17/16
f 22/22/17 23/23/17 17/17/17
f 24/24/18 23/23/18 22/22/18
f 25/25/19 24/24/19 22/22/19
f 26/26/20 24/24/20 25/25/20
f 27/27/21 26/26/21 25/25/21
f 26/26/22 27/27/22 28/28/22
f 29/29/23 26/26/23 28/28/23
f 30/30/24 29/29/24 28/28/24
f 30/30/25 31/31/25 29/29/25
f 32/32/26 29/29/26 31/31/26
f 33/33/11 31/31/11 30/30/11
f 34/34/11 33/33/11 30/30/11
f 33/33/11 34/34/11 35/35/11
f 36/36/27 32/32/27 31/31/27
f 36/36/28 37/37/28 32/32/28
f 38/38/11 37/37/11 36/36/11
f 39/39/11 38/38/11 36/36/11
f 40/40/11 38/38/11 39/39/11
f 41/41/11 40/40/11 39/39/11
f 41/41/11 42/42/11 40/40/11
f 43/43/11 42/42/11 41/41/11
f 44/44/11 42/42/11 43/43/11
f 43/43/11 41/41/11 45/45/11
f 41/41/11 14/14/11 45/45/11
f 47/46/29 32/32/29 46/47/29
f 48/48/30 47/46/30 46/47/30
f 47/46/31 48/48/31 49/49/31
f 50/50/32 47/46/32 49/49/32
f 51/51/33 50/50/33 49/49/33
f 52/52/34 51/51/34 49/49/34
f 53/53/35 51/51/35 52/52/35
f 51/51/36 53/53/36 54/54/36
f 55/55/37 51/51/37 54/54/37
f 1/3/38 55/55/38 54/54/38
f 1/3/39 56/56/39 55/55/39
f 53/53/11 57/57/11 54/54/11
f 57/57/11 53/53/11 58/58/11
f 53/53/11 59/59/11 58/58/11
f 60/60/11 58/58/11 59/59/11
f 61/61/11 60/60/11 59/59/11
f 64/62/11 63/62/11 62/62/11
f 63/62/11 65/63/11 62/62/11
f 63/62/11 66/62/11 65/63/11
f 67/63/11 62/62/11 65/63/11
f 67/63/11 65/63/11 68/63/11
f 69/63/11 67/63/11 68/63/11
f 68/63/11 70/64/11 69/63/11
f 68/63/11 71/64/11 70/64/11
f 68/63/11 72/63/11 71/64/11
f 72/63/11 73/64/11 71/64/11
f 72/63/40 74/63/40 73/64/40
f 74/63/11 75/64/11 73/64/11
f 74/63/11 76/62/11 75/64/11
f 76/62/11 77/64/11 75/64/11
f 76/62/11 78/65/11 77/64/11
f 78/65/11 79/66/11 77/64/11
f 80/67/11 77/64/11 79/66/11
f 80/67/11 81/64/11 77/64/11
f 80/67/11 79/66/11 82/67/11
f 79/66/11 83/66/11 82/67/11
f 83/66/11 84/67/11 82/67/11
f 87/67/11 86/68/11 85/68/11
f 88/67/11 87/67/11 85/68/11
f 88/67/11 85/68/11 89/66/11
f 90/64/11 88/67/11 89/66/11
f 91/63/11 90/64/11 89/66/11
f 91/63/11 92/64/11 90/64/11
f 92/64/11 93/69/11 90/64/11
f 92/64/11 94/64/11 93/69/11
f 94/64/11 95/69/11 93/69/11
f 96/63/11 91/63/11 89/66/11
f 96/63/11 97/62/11 91/63/11
f 97/62/11 98/63/11 91/63/11
f 97/62/11 99/62/11 98/63/11
f 99/62/11 100/63/11 98/63/11
f 96/63/11 89/66/11 101/65/11
f 89/66/11 102/66/11 101/65/11
f 102/66/11 103/66/11 101/65/11
f 103/66/11 104/65/11 101/65/11
f 107/70/41 106/71/41 105/72/41
f 106/71/41 108/73/41 105/72/41
f 105/72/42 108/73/42 109/74/42
f 110/72/43 105/72/43 109/74/43
f 111/72/44 110/72/44 109/74/44
f 112/73/44 111/72/44 109/74/44
f 112/73/45 113/71/45 111/72/45
f 113/71/45 114/70/45 111/72/45
f 117/75/46 116/76/46 115/77/46
f 116/76/46 118/78/46 115/77/46
f 119/79/47 115/77/47 118/78/47
f 120/80/48 119/79/48 118/78/48
f 121/81/49 119/79/49 120/80/49
f 122/82/50 121/81/50 120/80/50
f 121/81/51 122/82/51 123/83/51
f 122/82/51 124/84/51 123/83/51
f 124/84/52 125/82/52 123/83/52
f 125/82/52 126/81/52 123/83/52
f 126/81/53 125/82/53 127/80/53
f 128/79/54 126/81/54 127/80/54
f 128/79/55 127/80/55 129/78/55
f 130/77/56 128/79/56 129/78/56
f 129/78/57 131/76/57 130/77/57
f 131/76/57 132/75/57 130/77/57
f 135/85/58 134/86/58 133/87/58
f 134/86/58 136/88/58 133/87/58
f 137/89/59 133/87/59 136/88/59
f 138/90/59 137/89/59 136/88/59
f 139/91/60 137/89/60 138/90/60
f 140/90/60 139/91/60 138/90/60
f 139/91/61 140/90/61 141/92/61
f 140/90/61 142/93/61 141/92/61
f 145/86/62 144/85/62 143/87/62
f 146/88/62 145/86/62 143/87/62
f 143/87/63 147/89/63 146/88/63
f 147/89/63 148/90/63 146/88/63
f 147/89/64 149/91/64 148/90/64
f 149/91/64 150/90/64 148/90/64
f 150/90/65 149/91/65 151/92/65
f 152/93/65 150/90/65 151/92/65
f 155/1/66 154/2/66 153/3/66
f 156/4/67 155/1/67 153/3/67
f 157/5/68 155/1/68 156/4/68
f 158/6/69 155/1/69 157/5/69
f 159/7/70 158/6/70 157/5/70
f 158/6/71 159/7/71 160/8/71
f 161/9/72 158/6/72 160/8/72
f 162/10/73 161/9/73 160/8/73
f 163/11/74 162/10/74 160/8/74
f 163/11/75 164/12/75 162/10/75
f 164/12/76 163/11/76 165/13/76
f 166/14/76 164/12/76 165/13/76
f 164/12/77 167/15/77 162/10/77
f 167/15/78 168/16/78 162/10/78
f 169/17/79 162/10/79 168/16/79
f 170/18/76 168/16/76 167/15/76
f 171/19/76 170/18/76 167/15/76
f 171/19/76 172/20/76 170/18/76
f 173/21/80 169/17/80 168/16/80
f 173/21/81 174/22/81 169/17/81
f 174/22/82 175/23/82 169/17/82
f 176/24/83 175/23/83 174/22/83
f 177/25/84 176/24/84 174/22/84
f 178/26/85 176/24/85 177/25/85
f 179/27/86 178/26/86 177/25/86
f 178/26/87 179/27/87 180/28/87
f 181/29/88 178/26/88 180/28/88
f 182/30/89 181/29/89 180/28/89
f 182/30/90 183/31/90 181/29/90
f 184/32/91 181/29/91 183/31/91
f 185/33/92 183/31/92 182/30/92
f 186/34/76 185/33/76 182/30/76
f 185/33/76 186/34/76 187/35/76
f 188/36/93 184/32/93 183/31/93
f 188/36/94 189/37/94 184/32/94
f 190/38/76 189/37/76 188/36/76
f 191/39/76 190/38/76 188/36/76
f 192/40/76 190/38/76 191/39/76
f 193/41/76 192/40/76 191/39/76
f 193/41/76 194/42/76 192/40/76
f 195/43/76 194/42/76 193/41/76
f 196/44/76 194/42/76 195/43/76
f 195/43/76 193/41/76 197/45/76
f 193/41/76 166/14/76 197/45/76
f 199/46/95 184/32/95 198/47/95
f 200/48/96 199/46/96 198/47/96
f 199/46/97 200/48/97 201/49/97
f 202/50/98 199/46/98 201/49/98
f 203/51/99 202/50/99 201/49/99
f 204/52/100 203/51/100 201/49/100
f 205/53/101 203/51/101 204/52/101
f 203/51/102 205/53/102 206/54/102
f 207/55/103 203/51/103 206/54/103
f 153/3/104 207/55/104 206/54/104
f 153/3/105 208/56/105 207/55/105
f 205/53/76 209/57/76 206/54/76
f 209/57/76 205/53/76 210/58/76
f 205/53/76 211/59/76 210/58/76
f 212/60/76 210/58/76 211/59/76
f 213/61/76 212/60/76 211/59/76
f 216/62/76 215/62/76 214/62/76
f 215/62/76 217/63/76 214/62/76
f 215/62/76 218/62/76 217/63/76
f 219/63/76 214/62/76 217/63/76
f 219/63/76 217/63/76 220/63/76
f 221/63/76 219/63/76 220/63/76
f 220/63/76 222/64/76 221/63/76
f 220/63/76 223/64/76 222/64/76
f 220/63/76 224/63/76 223/64/76
f 224/63/76 225/64/76 223/64/76
f 224/63/76 226/63/76 225/64/76
f 226/63/76 227/64/76 225/64/76
f 226/63/76 228/62/76 227/64/76
f 228/62/76 229/64/76 227/64/76
f 228/62/76 230/65/76 229/64/76
f 230/65/76 231/66/76 229/64/76
f 232/67/76 229/64/76 231/66/76
f 232/67/76 233/64/76 229/64/76
f 232/67/76 231/66/76 234/67/76
f 231/66/76 235/66/76 234/67/76
f 235/66/76 236/67/76 234/67/76
f 239/67/92 238/68/92 237/68/92
f 240/67/76 239/67/76 237/68/76
f 240/67/76 237/68/76 241/66/76
f 242/64/76 240/67/76 241/66/76
f 243/63/76 242/64/76 241/66/76
f 243/63/76 244/64/76 242/64/76
f 244/64/76 245/69/76 242/64/76
f 244/64/76 246/64/76 245/69/76
f 246/64/76 247/69/76 245/69/76
f 248/63/76 243/63/76 241/66/76
f 248/63/76 249/62/76 243/63/76
f 249/62/76 250/63/76 243/63/76
f 249/62/76 251/62/76 250/63/76
f 251/62/76 252/63/76 250/63/76
f 248/63/76 241/66/76 253/65/76
f 241/66/76 254/66/76 253/65/76
f 254/66/76 255/66/76 253/65/76
f 255/66/76 256/65/76 253/65/76
f 259/94/11 258/95/11 257/96/11
f 257/96/11 258/95/11 260/97/11
f 261/98/11 259/94/11 257/96/11
f 257/96/11 260/97/11 262/99/11
f 263/100/11 259/94/11 261/98/11
f 260/97/11 264/101/11 262/99/11
f 265/102/11 263/100/11 261/98/11
f 266/103/11 263/100/11 265/102/11
f 262/99/11 264/101/11 267/104/11
f 264/101/11 268/105/11 267/104/11
f 268/105/11 269/106/11 267/104/11
f 269/106/11 270/107/11 267/104/11
f 269/106/11 271/108/11 270/107/11
f 266/103/11 265/102/11 272/109/11
f 272/109/11 273/110/11 266/103/11
f 274/111/11 273/110/11 272/109/11
f 275/112/11 274/111/11 272/109/11
f 276/113/106 274/111/106 275/112/106
f 277/114/107 276/113/107 275/112/107
f 277/114/108 278/115/108 276/113/108
f 279/116/109 278/115/109 277/114/109
f 280/117/110 278/115/110 279/116/110
f 280/117/111 279/116/111 281/118/111
f 282/119/112 280/117/112 281/118/112
f 271/108/11 283/120/11 270/107/11
f 284/121/11 283/120/11 271/108/11
f 284/121/11 285/122/11 283/120/11
f 285/122/11 286/123/11 283/120/11
f 285/122/11 287/124/11 286/123/11
f 287/124/11 288/125/11 286/123/11
f 287/124/11 289/126/11 288/125/11
f 282/119/11 281/118/11 290/127/11
f 288/125/11 289/126/11 290/127/11
f 291/128/11 282/119/11 290/127/11
f 291/128/11 290/127/11 289/126/11
f 294/94/76 293/95/76 292/96/76
f 292/96/76 293/95/76 295/97/76
f 296/98/76 294/94/76 292/96/76
f 292/96/76 295/97/76 297/99/76
f 298/100/76 294/94/76 296/98/76
f 295/97/76 299/101/76 297/99/76
f 300/102/76 298/100/76 296/98/76
f 301/103/76 298/100/76 300/102/76
f 297/99/76 299/101/76 302/104/76
f 299/101/76 303/105/76 302/104/76
f 303/105/76 304/106/76 302/104/76
f 304/106/76 305/107/76 302/104/76
f 304/106/76 306/108/76 305/107/76
f 301/103/76 300/102/76 307/109/76
f 307/109/76 308/110/76 301/103/76
f 309/111/76 308/110/76 307/109/76
f 310/112/76 309/111/76 307/109/76
f 311/113/113 309/111/113 310/112/113
f 312/114/114 311/113/114 310/112/114
f 312/114/115 313/115/115 311/113/115
f 314/116/116 313/115/116 312/114/116
f 315/117/117 313/115/117 314/116/117
f 315/117/118 314/116/118 316/118/118
f 317/119/119 315/117/119 316/118/119
f 306/108/76 318/120/76 305/107/76
f 319/121/76 318/120/76 306/108/76
f 319/121/76 320/122/76 318/120/76
f 320/122/76 321/123/76 318/120/76
f 320/122/76 322/124/76 321/123/76
f 322/124/76 323/125/76 321/123/76
f 322/124/76 324/126/76 323/125/76
f 317/119/76 316/118/76 325/127/76
f 323/125/76 324/126/76 325/127/76
f 326/128/76 317/119/76 325/127/76
f 326/128/76 325/127/76 324/126/76
