# Blender 4.5.3 LTS
# www.blender.org
mtllib megmat.mtl
o powerups_coinMagnet
v -1.393562 2.720872 1.018806
v -1.213730 4.647889 1.020729
v -1.211174 4.649727 -1.022881
v -1.391006 2.722710 -1.024872
v -1.254700 2.118379 -1.025276
v -1.257248 2.116548 1.018410
v -0.869644 1.633110 -1.025192
v -0.872200 1.631272 1.018410
v -0.312187 1.362969 -1.024796
v -0.314827 1.361055 1.018890
v 0.307236 1.361374 -1.023994
v 0.304680 1.359536 1.019691
v 0.866043 1.628800 -1.023041
v 0.863487 1.626886 1.020645
v 1.253494 2.112069 -1.022079
v 1.250938 2.110238 1.021523
v 1.392838 2.715683 -1.021362
v 1.390282 2.713845 1.022240
v 1.227219 4.561250 1.023758
v 1.229774 4.563164 -1.019920
v -1.391006 2.722710 -1.024872
v -1.211174 4.649727 -1.022881
v -2.387817 4.723114 -0.741875
v -2.699478 2.871552 -0.743950
v -2.545601 1.542161 -0.744987
v -1.254700 2.118379 -1.025276
v -1.740601 0.546791 -0.744827
v -0.869644 1.633110 -1.025192
v -0.625694 0.006425 -0.743950
v -0.312187 1.362969 -1.024796
v 0.613228 0.003305 -0.742355
v 0.307236 1.361374 -1.023994
v 1.730774 0.538087 -0.740517
v 0.866043 1.628800 -1.023041
v 2.540810 1.529382 -0.738602
v 1.253494 2.112069 -1.022079
v 2.701317 2.857980 -0.737160
v 1.392838 2.715683 -1.021362
v 1.229774 4.563164 -1.019920
v 2.411606 4.633759 -0.735886
v -2.699478 2.871552 -0.743950
v -2.387817 4.723114 -0.741875
v -2.389648 4.721833 0.736931
v -2.701317 2.870202 0.734848
v -2.547440 1.540802 0.733811
v -2.545601 1.542161 -0.744987
v -1.742439 0.545434 0.733894
v -1.740601 0.546791 -0.744827
v -0.627609 0.005067 0.734848
v -0.625694 0.006425 -0.743950
v 0.611313 0.001954 0.736367
v 0.613228 0.003305 -0.742355
v 1.728943 0.536729 0.738289
v 1.730774 0.538087 -0.740517
v 2.538895 1.528023 0.740204
v 2.540810 1.529382 -0.738602
v 2.699478 2.856622 0.741638
v 2.701317 2.857980 -0.737160
v 2.411606 4.633759 -0.735886
v 2.409691 4.632402 0.742836
v -2.701317 2.870202 0.734848
v -2.389648 4.721833 0.736931
v -1.213730 4.647889 1.020729
v -1.393562 2.720872 1.018806
v -1.257248 2.116548 1.018410
v -2.547440 1.540802 0.733811
v -0.872200 1.631272 1.018410
v -1.742439 0.545434 0.733894
v -0.314827 1.361055 1.018890
v -0.627609 0.005067 0.734848
v 0.304680 1.359536 1.019691
v 0.611313 0.001954 0.736367
v 0.863487 1.626886 1.020645
v 1.728943 0.536729 0.738289
v 1.250938 2.110238 1.021523
v 2.538895 1.528023 0.740204
v 1.390282 2.713845 1.022240
v 2.699478 2.856622 0.741638
v 2.409691 4.632402 0.742836
v 1.227219 4.561250 1.023758
v -2.096268 6.464791 0.738846
v -2.094353 6.466149 -0.739960
v -1.041885 6.463754 -1.021042
v -1.044441 6.461915 1.022644
v 1.059929 6.456651 1.025276
v 1.062485 6.458481 -1.018410
v 2.114311 6.455606 -0.734612
v 2.112473 6.454255 0.744117
v 1.227219 4.561250 1.023758
v 1.059929 6.456651 1.025276
v 2.112473 6.454255 0.744117
v 2.409691 4.632402 0.742836
v 1.229774 4.563164 -1.019920
v 1.059929 6.456651 1.025276
v 1.062485 6.458481 -1.018410
v 2.411606 4.633759 -0.735886
v 2.114311 6.455606 -0.734612
v 1.062485 6.458481 -1.018410
v 1.229774 4.563164 -1.019920
v 2.409691 4.632402 0.742836
v 2.112473 6.454255 0.744117
v 2.114311 6.455606 -0.734612
v 2.411606 4.633759 -0.735886
v -2.389648 4.721833 0.736931
v -2.096268 6.464791 0.738846
v -1.044441 6.461915 1.022644
v -1.213730 4.647889 1.020729
v -1.044441 6.461915 1.022644
v -1.041885 6.463754 -1.021042
v -1.211174 4.649727 -1.022881
v -2.387817 4.723114 -0.741875
v -2.094353 6.466149 -0.739960
v -2.096268 6.464791 0.738846
v -2.389648 4.721833 0.736931
v -1.211174 4.649727 -1.022881
v -1.041885 6.463754 -1.021042
v -2.094353 6.466149 -0.739960
v -2.387817 4.723114 -0.741875
v -0.000046 -76.265961 0.000052
v 0.500000 -77.265961 0.000052
v -0.500000 -77.265961 0.000052
vn 0.9957 -0.0929 0.0012
vn 0.9755 0.2200 0.0014
vn 0.7833 0.6216 0.0015
vn 0.7834 0.6216 0.0015
vn 0.4361 0.8999 0.0014
vn 0.4362 0.8998 0.0014
vn 0.0026 1.0000 0.0009
vn 0.0025 1.0000 0.0009
vn -0.4317 0.9020 0.0003
vn -0.4316 0.9021 0.0003
vn -0.7802 0.6255 -0.0004
vn -0.7803 0.6255 -0.0004
vn -0.9744 0.2249 -0.0010
vn -0.9961 -0.0879 -0.0013
vn -0.2309 0.0226 -0.9727
vn -0.2059 0.0358 -0.9779
vn -0.2124 -0.0238 -0.9769
vn -0.1936 -0.0430 -0.9801
vn -0.1562 -0.1265 -0.9796
vn -0.1583 -0.1258 -0.9793
vn -0.0877 -0.1825 -0.9793
vn 0.0007 -0.2029 -0.9792
vn 0.0892 -0.1830 -0.9791
vn 0.0892 -0.1829 -0.9791
vn 0.1587 -0.1278 -0.9790
vn 0.1589 -0.1254 -0.9793
vn 0.2048 -0.0237 -0.9785
vn 0.2171 -0.0490 -0.9749
vn 0.2102 0.0193 -0.9775
vn 0.2313 0.0384 -0.9721
vn -0.9861 0.1660 -0.0011
vn -0.9934 -0.1150 -0.0013
vn -0.7775 -0.6288 -0.0015
vn -0.4362 -0.8999 -0.0014
vn -0.4361 -0.8999 -0.0014
vn -0.0025 -1.0000 -0.0009
vn 0.4316 -0.9021 -0.0003
vn 0.4317 -0.9020 -0.0003
vn 0.7744 -0.6327 0.0004
vn 0.7743 -0.6328 0.0004
vn 0.9928 -0.1200 0.0012
vn 0.9928 -0.1199 0.0011
vn 0.9870 0.1610 0.0014
vn 0.9869 0.1611 0.0014
vn -0.2322 0.0380 0.9719
vn -0.2101 0.0186 0.9775
vn -0.2173 -0.0497 0.9748
vn -0.2049 -0.0245 0.9785
vn -0.1595 -0.1266 0.9791
vn -0.1593 -0.1288 0.9788
vn -0.0901 -0.1842 0.9787
vn -0.0018 -0.2046 0.9788
vn -0.0017 -0.2047 0.9788
vn 0.0867 -0.1847 0.9790
vn 0.1578 -0.1283 0.9791
vn 0.1556 -0.1290 0.9794
vn 0.1934 -0.0458 0.9801
vn 0.2123 -0.0267 0.9768
vn 0.2060 0.0330 0.9780
vn 0.2300 0.0195 0.9730
vn 0.2581 0.0220 0.9659
vn 0.2289 0.0367 0.9728
vn 0.2604 0.0432 -0.9645
vn 0.2324 0.0213 -0.9724
vn -0.2602 0.0427 0.9646
vn -0.2333 0.0207 0.9722
vn -0.2579 0.0250 -0.9658
vn -0.2298 0.0398 -0.9724
vn -0.0000 -0.0000 1.0000
vt 0.440757 0.356054
vt 0.383123 0.356054
vt 0.383123 0.372656
vt 0.440757 0.372656
vt 0.440757 0.381781
vt 0.383123 0.381781
vt 0.440757 0.390066
vt 0.383123 0.390066
vt 0.440757 0.391852
vt 0.383123 0.391852
vt 0.383123 0.356741
vt 0.440757 0.356741
vt 0.383123 0.369467
vt 0.440757 0.369467
vt 0.440757 0.387350
vt 0.382925 0.387350
vt 0.382925 0.379583
vt 0.440757 0.379217
vt 0.383123 0.367971
vt 0.440757 0.367971
vt 0.383123 0.362188
vt 0.440757 0.362188
vt 0.383123 0.379217
vt 0.383123 0.387350
vt 0.383123 0.372625
vt 0.440757 0.372625
vt 0.440467 0.365652
vt 0.383123 0.365621
vt 0.383123 0.361135
vt 0.440467 0.361242
vt 0.383123 0.357534
vt 0.440757 0.357534
vt 0.383123 0.357275
vt 0.440757 0.357275
vt 0.383123 0.357229
vt 0.440757 0.357229
vt 0.440757 0.361135
vt 0.440757 0.365621
vt 0.440757 0.372351
vt 0.383123 0.372351
vt 0.354742 0.264225
vt 0.354742 0.264485
vt 0.378180 0.264485
vt 0.378180 0.264225
vt 0.355139 0.264210
vt 0.355139 0.264485
vt 0.378576 0.264485
vt 0.378576 0.264210
vt 0.380652 0.264363
vt 0.325567 0.264363
vt 0.325567 0.243641
vt 0.380652 0.243641
vt 0.325475 0.236378
vt 0.380728 0.243427
vt 0.380728 0.236378
vt 0.380652 0.251041
vt 0.325567 0.251041
vt 0.325567 0.235630
vt 0.380652 0.235630
vt 1.000000 0.000000
vt 1.000000 1.000000
vt 0.000000 0.500008
s 0
f 3/1/1 2/2/1 1/3/1
f 4/4/1 3/1/1 1/3/1
f 5/5/2 4/4/2 1/3/2
f 6/6/2 5/5/2 1/3/2
f 7/7/3 5/5/3 6/6/3
f 8/8/4 7/7/4 6/6/4
f 9/9/5 7/7/5 8/8/5
f 10/10/6 9/9/6 8/8/6
f 11/9/7 9/9/7 10/10/7
f 12/10/8 11/9/8 10/10/8
f 13/7/9 11/9/9 12/10/9
f 14/8/10 13/7/10 12/10/10
f 15/5/11 13/7/11 14/8/11
f 16/6/12 15/5/12 14/8/12
f 17/4/13 15/5/13 16/6/13
f 18/3/13 17/4/13 16/6/13
f 18/3/14 19/11/14 17/4/14
f 19/11/14 20/12/14 17/4/14
f 23/13/15 22/14/15 21/15/15
f 24/16/16 23/13/16 21/15/16
f 25/17/17 24/16/17 21/15/17
f 26/18/18 25/17/18 21/15/18
f 27/19/19 25/17/19 26/18/19
f 28/20/20 27/19/20 26/18/20
f 29/21/21 27/19/21 28/20/21
f 30/22/21 29/21/21 28/20/21
f 31/21/22 29/21/22 30/22/22
f 32/22/22 31/21/22 30/22/22
f 33/19/23 31/21/23 32/22/23
f 34/20/24 33/19/24 32/22/24
f 35/23/25 33/19/25 34/20/25
f 36/18/26 35/23/26 34/20/26
f 37/24/27 35/23/27 36/18/27
f 38/15/28 37/24/28 36/18/28
f 38/15/29 39/14/29 37/24/29
f 39/14/30 40/13/30 37/24/30
f 43/25/31 42/26/31 41/27/31
f 44/28/31 43/25/31 41/27/31
f 45/29/32 44/28/32 41/27/32
f 46/30/32 45/29/32 41/27/32
f 47/31/33 45/29/33 46/30/33
f 48/32/33 47/31/33 46/30/33
f 49/33/34 47/31/34 48/32/34
f 50/34/35 49/33/35 48/32/35
f 51/35/36 49/33/36 50/34/36
f 52/36/36 51/35/36 50/34/36
f 53/31/37 51/35/37 52/36/37
f 54/32/38 53/31/38 52/36/38
f 55/29/39 53/31/39 54/32/39
f 56/37/40 55/29/40 54/32/40
f 57/28/41 55/29/41 56/37/41
f 58/38/42 57/28/42 56/37/42
f 58/38/43 59/39/43 57/28/43
f 59/39/44 60/40/44 57/28/44
f 63/14/45 62/13/45 61/24/45
f 64/15/46 63/14/46 61/24/46
f 65/18/47 64/15/47 61/24/47
f 66/23/48 65/18/48 61/24/48
f 67/20/49 65/18/49 66/23/49
f 68/19/50 67/20/50 66/23/50
f 69/22/51 67/20/51 68/19/51
f 70/21/51 69/22/51 68/19/51
f 71/22/52 69/22/52 70/21/52
f 72/21/53 71/22/53 70/21/53
f 73/20/54 71/22/54 72/21/54
f 74/19/54 73/20/54 72/21/54
f 75/18/55 73/20/55 74/19/55
f 76/23/56 75/18/56 74/19/56
f 77/15/57 75/18/57 76/23/57
f 78/24/58 77/15/58 76/23/58
f 78/24/59 79/13/59 77/15/59
f 79/13/60 80/14/60 77/15/60
f 83/41/8 82/42/8 81/43/8
f 84/44/8 83/41/8 81/43/8
f 87/45/8 86/46/8 85/47/8
f 88/48/8 87/45/8 85/47/8
f 91/49/61 90/50/61 89/51/61
f 92/52/62 91/49/62 89/51/62
f 89/51/14 94/53/14 93/54/14
f 94/53/14 95/55/14 93/54/14
f 98/50/63 97/49/63 96/52/63
f 99/51/64 98/50/64 96/52/64
f 102/56/43 101/57/43 100/58/43
f 103/59/44 102/56/44 100/58/44
f 106/50/65 105/49/65 104/52/65
f 107/51/66 106/50/66 104/52/66
f 109/55/1 108/53/1 107/51/1
f 110/54/1 109/55/1 107/51/1
f 113/57/31 112/56/31 111/59/31
f 114/58/31 113/57/31 111/59/31
f 117/49/67 116/50/67 115/51/67
f 118/52/68 117/49/68 115/51/68
f 121/60/69 120/61/69 119/62/69
